<svg width="393" height="852" viewBox="0 0 393 852" fill="none" xmlns="http://www.w3.org/2000/svg">
<rect width="393" height="852" fill="white"/>
<rect width="393" height="852" fill="#F0F0F0"/>
<path d="M150.523 346.266C161.812 346.266 170.963 332.999 170.963 316.633C170.963 300.267 161.812 287 150.523 287C139.235 287 130.084 300.267 130.084 316.633C130.084 332.999 139.235 346.266 150.523 346.266Z" stroke="#EF5A39" stroke-width="8" stroke-miterlimit="10" stroke-linecap="round"/>
<path d="M143.572 288.647C148.309 288.898 155.289 301.597 147.432 307.744C146.021 308.846 145.678 310.805 146.567 312.364C149.238 317.045 147.91 326.366 130.4 326.301" stroke="#EF5A39" stroke-width="8" stroke-miterlimit="10"/>
<path d="M230.396 346.266C241.684 346.266 250.835 332.999 250.835 316.633C250.835 300.267 241.684 287 230.396 287C219.107 287 209.956 300.267 209.956 316.633C209.956 332.999 219.107 346.266 230.396 346.266Z" stroke="#EF5A39" stroke-width="8" stroke-miterlimit="10" stroke-linecap="round"/>
<path d="M223.108 288.647C227.844 288.898 235.162 301.597 227.304 307.744C225.894 308.846 225.55 310.805 226.439 312.364C229.11 317.045 227.782 326.366 210.272 326.301" stroke="#EF5A39" stroke-width="8" stroke-miterlimit="10"/>
<path d="M191.402 328.661V353.699" stroke="#EF5A39" stroke-width="8" stroke-miterlimit="10" stroke-linecap="round"/>
<path d="M112.5 360.838C117.747 360.838 122 356.361 122 350.838C122 345.315 117.747 340.838 112.5 340.838C107.253 340.838 103 345.315 103 350.838C103 356.361 107.253 360.838 112.5 360.838Z" stroke="#EF5A39" stroke-width="8" stroke-miterlimit="10" stroke-linecap="round"/>
<path d="M266.5 360.838C271.747 360.838 276 356.361 276 350.838C276 345.315 271.747 340.838 266.5 340.838C261.253 340.838 257 345.315 257 350.838C257 356.361 261.253 360.838 266.5 360.838Z" stroke="#EF5A39" stroke-width="8" stroke-miterlimit="10" stroke-linecap="round"/>
<path d="M191 403C198.18 403 204 396.956 204 389.5C204 382.044 198.18 376 191 376C183.82 376 178 382.044 178 389.5C178 396.956 183.82 403 191 403Z" stroke="#EF5A39" stroke-width="8" stroke-miterlimit="10" stroke-linecap="round"/>
<path d="M121 242C115.718 251.667 108.322 271 121 271C133.678 271 126.282 251.667 121 242Z" stroke="#EF5A39" stroke-width="5"/>
<path d="M98 271C94.2269 278 88.9445 292 98 292C107.055 292 101.773 278 98 271Z" stroke="#EF5A39" stroke-width="5"/>
</svg>
