<svg width="37" height="36" viewBox="0 0 37 36" fill="none" xmlns="http://www.w3.org/2000/svg">
<g clip-path="url(#clip0_328_3243)">
<path d="M33.8404 0H2.86783C1.28326 0 0 1.26 0 2.8125V33.1875C0 34.7415 1.28479 36 2.86783 36H33.8404C35.4249 36 36.7082 34.74 36.7082 33.1875V2.8125C36.7082 1.2585 35.4234 0 33.8404 0ZM18.3541 28.125C17.4502 28.125 16.5646 28.0635 15.705 27.945C14.8454 28.539 9.87298 31.9635 9.40342 32.028C9.40342 32.028 9.21223 32.1015 9.04857 32.007C8.88491 31.9125 8.91397 31.6635 8.91397 31.6635C8.96292 31.3335 10.2034 27.1365 10.4312 26.364C6.23275 24.324 3.44139 20.7105 3.44139 16.5945C3.44139 10.2255 10.1177 5.0625 18.3541 5.0625C26.5905 5.0625 33.2668 10.2255 33.2668 16.5945C33.2668 22.962 26.5905 28.125 18.3541 28.125ZM12.3125 14.8005H10.9696V19.8135C10.9696 20.2575 10.5842 20.619 10.1085 20.619C9.63284 20.619 9.24894 20.259 9.24894 19.8135V14.8005H7.90603C7.69346 14.7851 7.49469 14.6914 7.34963 14.5383C7.20456 14.3851 7.12394 14.1838 7.12394 13.9747C7.12394 13.7657 7.20456 13.5644 7.34963 13.4112C7.49469 13.2581 7.69346 13.1644 7.90603 13.149H12.311C12.5236 13.1644 12.7224 13.2581 12.8674 13.4112C13.0125 13.5644 13.0931 13.7657 13.0931 13.9747C13.0931 14.1838 13.0125 14.3851 12.8674 14.5383C12.7224 14.6914 12.5236 14.7851 12.311 14.8005H12.3125ZM29.1172 19.236C29.1859 19.3242 29.2361 19.4249 29.2647 19.5323C29.2933 19.6397 29.2999 19.7516 29.284 19.8615C29.2682 19.9711 29.2306 20.0766 29.1731 20.1718C29.1156 20.2671 29.0394 20.3503 28.949 20.4165C28.8004 20.5275 28.6188 20.5876 28.432 20.5875C28.2985 20.5882 28.1667 20.5582 28.0471 20.4998C27.9276 20.4415 27.8237 20.3564 27.7437 20.2515L25.7263 17.631L25.4281 17.9235V19.764C25.4277 19.9876 25.337 20.2019 25.176 20.3602C25.0149 20.5184 24.7965 20.6077 24.5685 20.6085C24.3401 20.6085 24.1211 20.5195 23.9596 20.3612C23.7981 20.2028 23.7074 19.988 23.7074 19.764V13.992C23.7167 13.7744 23.8115 13.5687 23.9718 13.418C24.1321 13.2672 24.3456 13.1831 24.5677 13.1831C24.7898 13.1831 25.0033 13.2672 25.1637 13.418C25.324 13.5687 25.4187 13.7744 25.4281 13.992V15.807L27.8294 13.452C27.8921 13.3913 27.9664 13.3434 28.048 13.3109C28.1296 13.2785 28.217 13.2622 28.3051 13.263C28.5192 13.263 28.7364 13.3545 28.8985 13.5135C29.0461 13.6554 29.1359 13.8453 29.1509 14.0475C29.1588 14.1416 29.146 14.2362 29.1133 14.325C29.0805 14.4138 29.0287 14.4946 28.9612 14.562L27.0004 16.4835L29.1172 19.236ZM16.3459 13.983C16.2006 13.578 15.7601 13.161 15.1987 13.149C14.6389 13.161 14.1984 13.578 14.0531 13.9815L11.9959 19.293C11.7344 20.088 11.9623 20.385 12.1994 20.493C12.3708 20.5695 12.557 20.6089 12.7454 20.6085C13.1048 20.6085 13.3786 20.466 13.4612 20.2365L13.8879 19.1415H16.511L16.9378 20.2365C17.0204 20.466 17.2941 20.6085 17.6536 20.6085C17.842 20.6083 18.0283 20.5684 18.1996 20.4915C18.4367 20.385 18.6646 20.0895 18.403 19.2915L16.3459 13.983ZM14.3407 17.6475L15.2003 15.2535L16.0583 17.6475H14.3407ZM23.3724 19.722C23.3676 19.9318 23.2781 20.1312 23.1235 20.2763C22.9689 20.4214 22.7619 20.5004 22.548 20.496H19.7888C19.6827 20.4984 19.5772 20.4803 19.4783 20.4427C19.3794 20.4051 19.289 20.3487 19.2123 20.2768C19.1356 20.2049 19.0741 20.1189 19.0313 20.0237C18.9885 19.9285 18.9652 19.826 18.9628 19.722V13.992C18.9628 13.527 19.3575 13.149 19.8423 13.149C20.3272 13.149 20.7202 13.527 20.7202 13.992V18.9495H22.548C23.0023 18.9495 23.3724 19.296 23.3724 19.722Z" fill="black"/>
</g>
<defs>
<clipPath id="clip0_328_3243">
<rect width="36.7082" height="36" rx="3" fill="white"/>
</clipPath>
</defs>
</svg>
