<svg width="194" height="99" viewBox="0 0 194 99" fill="none" xmlns="http://www.w3.org/2000/svg">
<g clip-path="url(#clip0_809_3)">
<path d="M35.0374 75.4424C52.6308 75.4424 66.8931 63.0718 66.8931 47.8121C66.8931 32.5523 52.6308 20.1818 35.0374 20.1818C17.444 20.1818 3.18176 32.5523 3.18176 47.8121C3.18176 63.0718 17.444 75.4424 35.0374 75.4424Z" stroke="#EF5A39" stroke-width="7" stroke-miterlimit="10" stroke-linecap="round"/>
<path d="M57.3351 95.8182C55.2479 90.1166 66.5494 75.5696 77.6856 81.7422C79.6837 82.8494 82.14 82.2767 83.5145 80.4568C87.6381 74.9714 99.1814 71.8788 107.925 92.522" stroke="#EF5A39" stroke-width="7" stroke-miterlimit="10" stroke-linecap="round"/>
<path d="M137.452 44.8721H96.1016" stroke="#EF5A39" stroke-width="7" stroke-miterlimit="10" stroke-linecap="round"/>
<path d="M128.975 27.5634L107.823 28.2507C105.965 28.3652 104.145 28.9634 102.541 30.1215C98.3797 33.1633 95.6561 38.5595 95.4652 44.5158C95.2234 51.8592 98.8633 58.9609 104.438 62.2445C106.207 63.2881 108.167 63.6826 110.089 63.5681L134.677 62.0663" stroke="#EF5A39" stroke-width="7" stroke-miterlimit="10" stroke-linecap="round"/>
</g>
<path d="M164.525 65.2039L172.637 36.7122L174.732 29.6658L180.869 31.6187L178.507 38.5802L168.661 66.52L164.525 65.2039ZM161.538 81.5162C159.137 80.752 157.818 78.202 158.688 75.4672C159.58 72.6656 162.108 71.4135 164.51 72.1776C166.978 72.963 168.385 75.4675 167.493 78.2691C166.623 81.004 164.006 82.3016 161.538 81.5162Z" fill="#EF5A39"/>
<defs>
<clipPath id="clip0_809_3">
<rect width="140.633" height="82" fill="white" transform="translate(0 17)"/>
</clipPath>
</defs>
</svg>
