<svg width="30" height="30" viewBox="0 0 30 30" fill="none" xmlns="http://www.w3.org/2000/svg">
<path d="M9.54546 13.6362C9.1838 13.6362 8.83696 13.7799 8.58122 14.0356C8.32549 14.2914 8.18182 14.6382 8.18182 14.9999C8.18182 15.3615 8.32549 15.7084 8.58122 15.9641C8.83696 16.2198 9.1838 16.3635 9.54546 16.3635H20.4546C20.8162 16.3635 21.1631 16.2198 21.4188 15.9641C21.6745 15.7084 21.8182 15.3615 21.8182 14.9999C21.8182 14.6382 21.6745 14.2914 21.4188 14.0356C21.1631 13.7799 20.8162 13.6362 20.4546 13.6362H9.54546Z" fill="#EF5A39"/>
<path fill-rule="evenodd" clip-rule="evenodd" d="M30 15C30 23.2841 23.2841 30 15 30C6.71591 30 0 23.2841 0 15C0 6.71591 6.71591 0 15 0C23.2841 0 30 6.71591 30 15ZM27.2727 15C27.2727 16.6117 26.9553 18.2076 26.3385 19.6966C25.7218 21.1856 24.8178 22.5385 23.6781 23.6781C22.5385 24.8178 21.1856 25.7218 19.6966 26.3385C18.2076 26.9553 16.6117 27.2727 15 27.2727C13.3883 27.2727 11.7924 26.9553 10.3034 26.3385C8.81443 25.7218 7.4615 24.8178 6.32187 23.6781C5.18224 22.5385 4.27824 21.1856 3.66148 19.6966C3.04472 18.2076 2.72727 16.6117 2.72727 15C2.72727 11.7451 4.02029 8.62345 6.32187 6.32187C8.62345 4.02029 11.7451 2.72727 15 2.72727C18.2549 2.72727 21.3765 4.02029 23.6781 6.32187C25.9797 8.62345 27.2727 11.7451 27.2727 15Z" fill="#EF5A39"/>
</svg>
