<svg width="10" height="14" viewBox="0 0 10 14" fill="none" xmlns="http://www.w3.org/2000/svg">
<path d="M0.444114 0.368328C0.303332 0.484325 0.191641 0.622106 0.115434 0.773787C0.0392265 0.925467 0 1.08807 0 1.25228C0 1.41649 0.0392265 1.57909 0.115434 1.73077C0.191641 1.88245 0.303332 2.02023 0.444114 2.13623L6.33639 7.00109L0.444114 11.866C0.160165 12.1004 0.000643035 12.4184 0.000643035 12.7499C0.000643035 13.0815 0.160165 13.3994 0.444114 13.6339C0.728064 13.8683 1.11318 14 1.51475 14C1.91631 14 2.30143 13.8683 2.58538 13.6339L9.55589 7.87877C9.69667 7.76278 9.80836 7.625 9.88457 7.47332C9.96078 7.32164 10 7.15904 10 6.99482C10 6.83061 9.96078 6.66801 9.88457 6.51633C9.80836 6.36465 9.69667 6.22687 9.55589 6.11087L2.58538 0.35579C2.0083 -0.120666 1.03638 -0.120666 0.444114 0.368328Z" fill="black"/>
</svg>
