<svg width="19" height="19" viewBox="0 0 19 19" fill="none" xmlns="http://www.w3.org/2000/svg">
<path d="M17.9942 9.21889L17.9936 9.21041L17.9924 9.202C17.9657 9.00748 17.8695 8.82922 17.7215 8.70016C17.5735 8.57111 17.3839 8.50001 17.1875 8.5C16.972 8.5 16.7654 8.5856 16.613 8.73798C16.4606 8.89035 16.375 9.09701 16.375 9.3125V15.6834L16.3715 15.7902C16.3456 16.152 16.1839 16.4906 15.9187 16.7382C15.6525 16.9868 15.3018 17.125 14.9375 17.125H14.9375H4.06656L3.95981 17.1215C3.59803 17.0956 3.25936 16.9339 3.01176 16.6687C2.76319 16.4025 2.62496 16.0518 2.625 15.6875V15.6875V9.3125V9.30393L2.62441 9.29538L2.61916 9.21888L2.61858 9.21037L2.61742 9.20193C2.58937 8.99808 2.48503 8.81247 2.32545 8.68256C2.16588 8.55265 1.96296 8.48813 1.75766 8.50202C1.55236 8.51591 1.35998 8.60717 1.21936 8.75739C1.07873 8.9076 1.00034 9.10558 1 9.31134V9.31175V15.6868H0.999922L1.00008 15.693L1.00383 15.843L1.00373 15.843L1.0041 15.85C1.04571 16.633 1.38609 17.3703 1.9551 17.9098C2.5241 18.4493 3.27839 18.7501 4.0625 18.75H14.9375V18.7501L14.9438 18.7499L15.0938 18.7462L15.0938 18.7463L15.1008 18.7459C15.8837 18.7041 16.6208 18.3636 17.1601 17.7946C17.6995 17.2256 18.0001 16.4715 18 15.6875V9.3125V9.30393L17.9994 9.29539L17.9942 9.21889ZM9.36472 0.448726L9.34835 0.450924L9.33242 0.455255L9.25517 0.476255L9.24055 0.48023L9.22651 0.485943L9.16201 0.512193L9.14598 0.518719L9.13099 0.527393L9.05974 0.568643L9.0423 0.578744L9.02669 0.59151L8.94419 0.65901L8.93455 0.6669L8.92574 0.675709L4.15274 5.44796L4.14603 5.45467L4.13984 5.46187L4.08509 5.52562L4.07911 5.53258L4.07366 5.53996C3.95805 5.69647 3.90245 5.88927 3.91697 6.08331C3.93148 6.27734 4.01514 6.45973 4.15274 6.5973L4.15892 6.60347L4.16551 6.6092L4.22851 6.66395L4.23599 6.67045L4.24396 6.67634C4.40047 6.79195 4.59327 6.84755 4.78731 6.83303C4.98133 6.81852 5.16371 6.73487 5.30128 6.59728C5.30128 6.59727 5.30129 6.59726 5.3013 6.59726L8.6875 3.21105V12.6875V12.6961L8.68809 12.7046L8.69334 12.7811L8.69392 12.7896L8.69507 12.798C8.72178 12.9925 8.81801 13.1708 8.96598 13.2998C9.11395 13.4289 9.30365 13.5 9.49999 13.5H9.50856L9.51711 13.4994L9.59362 13.4942L9.60209 13.4936L9.6105 13.4924C9.80502 13.4657 9.98329 13.3695 10.1123 13.2215C10.2414 13.0735 10.3125 12.8839 10.3125 12.6875V3.21105L13.6987 6.59728L13.7049 6.60346L13.7115 6.6092L13.7745 6.66395L13.7817 6.6702L13.7894 6.67589C13.9542 6.79845 14.1594 6.854 14.3636 6.83135C14.5678 6.8087 14.7559 6.70954 14.8899 6.55382C15.0239 6.39811 15.094 6.1974 15.0859 5.99211L14.8361 6.00186L15.0859 5.99211C15.0779 5.78701 14.9926 5.59255 14.8471 5.4478C14.847 5.44766 14.8468 5.44753 14.8467 5.44739L10.0743 0.674973L10.0684 0.669088L10.0621 0.663606L10.0081 0.616356L9.99861 0.608028L9.9883 0.600703L9.9598 0.580453L9.95395 0.576298L9.94788 0.572486L9.90963 0.548486L9.90058 0.54281L9.89109 0.537926L9.83858 0.510926L9.82483 0.503855L9.81032 0.498532L9.76532 0.482032L9.75604 0.478631L9.74653 0.475972L9.69553 0.461722L9.68301 0.458225L9.6702 0.456045L9.5997 0.444045L9.58712 0.441903L9.57438 0.441054L9.52938 0.438054L9.51672 0.43721L9.50404 0.437652L9.43954 0.439902L9.4272 0.440332L9.41497 0.441976L9.36472 0.448726Z" fill="white" stroke="white" stroke-width="0.5"/>
</svg>