<svg width="18" height="18" viewBox="0 0 18 18" fill="none" xmlns="http://www.w3.org/2000/svg">
<path d="M15.3535 2.64739C14.4096 1.69617 13.2638 0.968854 12.0008 0.519161C10.7377 0.069467 9.38963 -0.09112 8.0561 0.049259C3.92313 0.46541 0.522155 3.81712 0.0604336 7.94489C-0.558949 13.3998 3.66411 18 8.9908 18C10.6914 18 12.3571 17.5181 13.7944 16.6102C15.2317 15.7023 16.3815 14.4058 17.1103 12.8712C17.4707 12.1176 16.9302 11.2516 16.0968 11.2516C15.6801 11.2516 15.286 11.4765 15.1058 11.8477C14.452 13.2525 13.3336 14.3896 11.939 15.0676C10.5443 15.7456 8.95837 15.9232 7.44798 15.5706C4.94792 15.0195 2.93212 12.9837 2.40283 10.4868C2.18033 9.49956 2.18291 8.47501 2.41036 7.48892C2.63782 6.50282 3.08433 5.58042 3.71687 4.78992C4.34942 3.99943 5.15181 3.36107 6.06469 2.92207C6.97758 2.48307 7.97761 2.25466 8.9908 2.25374C10.8602 2.25374 12.5269 3.0298 13.7432 4.25576L12.0427 5.95411C11.3332 6.66269 11.8287 7.8774 12.831 7.8774H16.8739C17.4932 7.8774 18 7.37127 18 6.75267V2.71488C18 1.71386 16.7838 1.20773 16.0743 1.91632L15.3535 2.64739Z" fill="#EF5A39"/>
</svg>
