<svg width="29" height="28" viewBox="0 0 29 28" fill="none" xmlns="http://www.w3.org/2000/svg">
<g clip-path="url(#clip0_541_277)">
<path d="M17.52 20.1868L13.8701 23.8992C13.2858 24.5016 12.59 24.9804 11.8229 25.3082C11.0559 25.636 10.2326 25.8062 9.40061 25.809C8.5686 25.8119 7.74426 25.6473 6.97504 25.3247C6.20582 25.0022 5.50693 24.5281 4.9186 23.9297C4.33028 23.3313 3.86414 22.6204 3.54703 21.838C3.22992 21.0556 3.0681 20.2172 3.07089 19.3709C3.07367 18.5246 3.24101 17.6873 3.56327 16.9071C3.88553 16.1269 4.35634 15.4192 4.9486 14.8248L6.16444 13.5882C6.32308 13.421 6.51287 13.2875 6.72274 13.1957C6.93261 13.1039 7.15835 13.0555 7.3868 13.0534C7.61525 13.0513 7.84183 13.0954 8.05332 13.1833C8.2648 13.2712 8.45696 13.4011 8.61859 13.5653C8.78021 13.7295 8.90805 13.9249 8.99466 14.1399C9.08127 14.3549 9.12491 14.5853 9.12303 14.8177C9.12116 15.0501 9.0738 15.2797 8.98373 15.4933C8.89366 15.7068 8.76268 15.9 8.59842 16.0615L7.38143 17.3005C6.84763 17.8484 6.54893 18.589 6.55069 19.3604C6.55246 20.1317 6.85455 20.8709 7.39086 21.4162C7.92717 21.9616 8.65403 22.2686 9.41238 22.2702C10.1707 22.2718 10.8988 21.9678 11.4373 21.4247L15.0871 17.7123C15.4818 17.3111 15.7528 16.8014 15.8669 16.2458C15.981 15.6903 15.9332 15.1129 15.7295 14.5845C15.6561 14.3955 15.5804 14.2205 15.5047 14.0548L15.2558 13.5135C14.9346 12.7902 14.7969 12.2337 15.492 11.5255C16.4922 10.5082 17.4156 10.7718 18.2564 12.012C19.0917 13.2476 19.4754 14.7416 19.3409 16.2348C19.2064 17.728 18.5621 19.1263 17.52 20.1868ZM24.4136 13.1752L23.1977 14.4118C22.8734 14.7308 22.4389 14.9074 21.9877 14.9036C21.5366 14.8998 21.105 14.716 20.7858 14.3917C20.4667 14.0674 20.2855 13.6285 20.2814 13.1697C20.2773 12.7108 20.4505 12.2687 20.7638 11.9385L21.9796 10.7007C22.2536 10.4317 22.4721 10.1099 22.6225 9.75412C22.7729 9.39831 22.8521 9.01561 22.8555 8.62834C22.8589 8.24107 22.7865 7.85698 22.6424 7.49849C22.4983 7.14001 22.2855 6.81429 22.0163 6.54036C21.7471 6.26643 21.427 6.04977 21.0747 5.90302C20.7223 5.75626 20.3447 5.68236 19.964 5.68561C19.5832 5.68887 19.2069 5.76922 18.857 5.92198C18.5071 6.07473 18.1906 6.29684 17.926 6.57533L14.2762 10.2877C13.8815 10.6889 13.6105 11.1986 13.4964 11.7542C13.3823 12.3097 13.4301 12.8871 13.6339 13.4155C13.7073 13.6045 13.783 13.7795 13.8587 13.9452L14.1076 14.4865C14.4287 15.2098 14.5664 15.7675 13.8713 16.4745C12.8711 17.4918 11.9477 17.2282 11.107 15.988C10.2716 14.7525 9.88793 13.2584 10.0224 11.7652C10.157 10.272 10.8012 8.87375 11.8434 7.81317L15.4932 4.10083C16.0776 3.49844 16.7733 3.01956 17.5404 2.69179C18.3075 2.36401 19.1307 2.1938 19.9627 2.19097C20.7947 2.18813 21.6191 2.35273 22.3883 2.67527C23.1575 2.99781 23.8564 3.47193 24.4447 4.07033C25.0331 4.66873 25.4992 5.37959 25.8163 6.16198C26.1334 6.94437 26.2952 7.78284 26.2924 8.6291C26.2897 9.47536 26.1223 10.3127 25.8001 11.0929C25.4778 11.8731 25.0058 12.5808 24.4136 13.1752Z" fill="#EF5A39"/>
</g>
<defs>
<clipPath id="clip0_541_277">
<rect width="28" height="27.5286" fill="white" transform="translate(28.4443) rotate(90)"/>
</clipPath>
</defs>
</svg>
