<svg width="30" height="31" viewBox="0 0 30 31" fill="none" xmlns="http://www.w3.org/2000/svg">
<path d="M12.6573 21.1468L7 15.3855L8.88533 13.4659L12.6573 17.305L20.1987 9.62543L22.0853 11.5463L12.6573 21.1441V21.1468Z" fill="#EF5A39"/>
<path fill-rule="evenodd" clip-rule="evenodd" d="M0.333313 15.2904C0.333313 7.04341 6.89998 0.357544 15 0.357544C23.1 0.357544 29.6666 7.04341 29.6666 15.2904C29.6666 23.5375 23.1 30.2233 15 30.2233C6.89998 30.2233 0.333313 23.5375 0.333313 15.2904ZM15 27.5083C13.4241 27.5083 11.8637 27.1922 10.4078 26.5782C8.95187 25.9642 7.629 25.0643 6.5147 23.9297C5.40039 22.7952 4.51648 21.4483 3.91343 19.966C3.31037 18.4837 2.99998 16.8949 2.99998 15.2904C2.99998 13.686 3.31037 12.0972 3.91343 10.6149C4.51648 9.13254 5.40039 7.78566 6.5147 6.65113C7.629 5.5166 8.95187 4.61664 10.4078 4.00264C11.8637 3.38864 13.4241 3.07262 15 3.07262C18.1826 3.07262 21.2348 4.35985 23.4853 6.65113C25.7357 8.94242 27 12.0501 27 15.2904C27 18.5308 25.7357 21.6385 23.4853 23.9297C21.2348 26.221 18.1826 27.5083 15 27.5083Z" fill="#EF5A39"/>
</svg>
