<svg width="36" height="36" viewBox="0 0 36 36" fill="none" xmlns="http://www.w3.org/2000/svg">
<path d="M31.1786 16.7143C31.4116 16.7143 31.6367 16.7987 31.8124 16.9518C31.988 17.105 32.1022 17.3166 32.1339 17.5474L32.1429 17.6786V28.6071C32.143 29.8414 31.6697 31.0287 30.8206 31.9245C29.9715 32.8203 28.8111 33.3563 27.5786 33.4221L27.3214 33.4286H8.67858C7.44408 33.4287 6.25658 32.9552 5.36077 32.1058C4.46496 31.2564 3.92909 30.0957 3.86358 28.863L3.85715 28.6059V17.6773C3.85755 17.4331 3.95058 17.1981 4.11748 17.0198C4.28438 16.8416 4.5127 16.7332 4.75635 16.7168C5 16.7003 5.24083 16.7769 5.43021 16.931C5.6196 17.0852 5.74343 17.3055 5.77672 17.5474L5.78572 17.6786V28.6071C5.78563 29.3402 6.06381 30.0459 6.56405 30.5817C7.06429 31.1175 7.74928 31.4434 8.48058 31.4936L8.67858 31.5H27.3214C28.0545 31.5001 28.7602 31.2219 29.296 30.7217C29.8318 30.2214 30.1577 29.5364 30.2079 28.8051L30.2143 28.6071V17.6786C30.2143 17.4228 30.3159 17.1776 30.4967 16.9967C30.6776 16.8159 30.9228 16.7143 31.1786 16.7143ZM17.8252 2.90828L17.9113 2.89671L18.0219 2.89285L18.099 2.898L18.2199 2.91857L18.3073 2.943L18.3844 2.97128L18.4744 3.01757L18.54 3.05871L18.5889 3.09342L18.6814 3.17442L26.8637 11.3567C27.0367 11.5286 27.1382 11.7595 27.1477 12.0032C27.1572 12.2468 27.074 12.485 26.915 12.6698C26.7559 12.8546 26.5328 12.9723 26.2904 12.9992C26.0481 13.0261 25.8046 12.9602 25.6089 12.8147L25.5009 12.7209L18.9643 6.18428V23.4643C18.9643 23.6973 18.8799 23.9224 18.7267 24.0981C18.5736 24.2737 18.362 24.3879 18.1312 24.4196L18 24.4286C17.767 24.4286 17.5419 24.3442 17.3662 24.191C17.1906 24.0379 17.0764 23.8263 17.0447 23.5954L17.0357 23.4643V6.18428L10.4991 12.7209C10.3359 12.8842 10.1194 12.9835 9.88914 13.0007C9.65886 13.0179 9.43004 12.9519 9.24429 12.8147L9.13629 12.7209C8.97298 12.5576 8.87369 12.3411 8.85647 12.1108C8.83924 11.8806 8.90523 11.6517 9.04243 11.466L9.13629 11.3567L17.3186 3.17571L17.46 3.06L17.5822 2.98928L17.6927 2.94428L17.8252 2.90828Z" fill="#EF5A39" fill-opacity="0.9"/>
<path d="M32.3833 17.5303L32.3827 17.5218L32.3815 17.5134C32.3416 17.2227 32.1978 16.9563 31.9767 16.7634C31.7555 16.5706 31.472 16.4643 31.1786 16.4643C30.8565 16.4643 30.5477 16.5922 30.32 16.8199C30.0922 17.0477 29.9643 17.3565 29.9643 17.6786V28.6031L29.9582 28.7924C29.9113 29.4589 29.6138 30.0829 29.1254 30.5389C28.6359 30.9959 27.9911 31.2501 27.3215 31.25H27.3214H8.68263L8.49331 31.2439C7.82685 31.197 7.2028 30.8995 6.74679 30.4111C6.28978 29.9216 6.03564 29.2768 6.03572 28.6072V28.6071V17.6786V17.67L6.03513 17.6615L6.02613 17.5303L6.02555 17.5218L6.02439 17.5134C5.98247 17.2087 5.82653 16.9313 5.58804 16.7372C5.34956 16.543 5.04629 16.4466 4.73947 16.4673C4.43266 16.4881 4.14514 16.6245 3.93498 16.849C3.72481 17.0735 3.60765 17.3694 3.60715 17.6769V17.6773V28.6059H3.60707L3.60723 28.6121L3.61365 28.8692L3.61356 28.8692L3.61393 28.8763C3.68284 30.1729 4.24649 31.3938 5.18876 32.2872C6.13102 33.1807 7.38009 33.6787 8.67858 33.6786H27.3214V33.6786L27.3277 33.6785L27.5848 33.6721L27.5848 33.6722L27.5919 33.6718C28.8883 33.6025 30.1089 33.0387 31.002 32.0965C31.8952 31.1543 32.393 29.9054 32.3929 28.6071V17.6786V17.67L32.3923 17.6615L32.3833 17.5303ZM17.7919 2.66051L17.7755 2.66271L17.7596 2.66704L17.6271 2.70304L17.6125 2.70701L17.5985 2.71272L17.4879 2.75772L17.4719 2.76425L17.4569 2.77292L17.3347 2.84364L17.3173 2.85374L17.3017 2.86651L17.1603 2.98222L17.1506 2.99011L17.1418 2.99892L8.95953 11.1799L8.95282 11.1866L8.94663 11.1938L8.85278 11.3031L8.8468 11.3101L8.84134 11.3175C8.66857 11.5514 8.58547 11.8395 8.60716 12.1295C8.62885 12.4195 8.75389 12.6921 8.95954 12.8976L8.96571 12.9038L8.9723 12.9096L9.0803 13.0034L9.08778 13.0099L9.09576 13.0158C9.32966 13.1886 9.6178 13.2717 9.90778 13.25C10.1978 13.2283 10.4703 13.1033 10.6759 12.8976C10.6759 12.8976 10.6759 12.8976 10.6759 12.8976L16.7857 6.78783V23.4643V23.4729L16.7863 23.4814L16.7953 23.6125L16.7959 23.621L16.797 23.6294C16.837 23.9201 16.9808 24.1866 17.2019 24.3794C17.4231 24.5723 17.7066 24.6786 18 24.6786H18.0086L18.0171 24.678L18.1483 24.669L18.1567 24.6684L18.1652 24.6672C18.4559 24.6273 18.7223 24.4835 18.9151 24.2624C19.108 24.0412 19.2143 23.7577 19.2143 23.4643V6.78783L25.3241 12.8976L25.3303 12.9038L25.3369 12.9095L25.4449 13.0034L25.4521 13.0097L25.4597 13.0154C25.7061 13.1985 26.0128 13.2815 26.318 13.2477C26.6232 13.2138 26.9042 13.0656 27.1045 12.8329C27.3048 12.6002 27.4095 12.3002 27.3975 11.9934C27.3855 11.6868 27.2579 11.396 27.0402 11.1797C27.0401 11.1796 27.04 11.1795 27.0399 11.1794L18.8582 2.99765L18.8523 2.99176L18.8461 2.98628L18.7535 2.90528L18.744 2.89695L18.7337 2.88963L18.6848 2.85491L18.679 2.85076L18.6729 2.84695L18.6073 2.8058L18.5983 2.80013L18.5888 2.79524L18.4988 2.74896L18.485 2.74189L18.4705 2.73656L18.3934 2.70828L18.3841 2.70488L18.3746 2.70222L18.2871 2.67779L18.2746 2.67429L18.2618 2.67211L18.141 2.65154L18.1284 2.6494L18.1156 2.64855L18.0385 2.64341L18.0258 2.64256L18.0131 2.643L17.9026 2.64686L17.8902 2.64729L17.878 2.64894L17.7919 2.66051Z" stroke="#EF5A39" stroke-opacity="0.9" stroke-width="0.5"/>
</svg>
