<svg width="36" height="36" viewBox="0 0 36 36" fill="none" xmlns="http://www.w3.org/2000/svg">
<g clip-path="url(#clip0_541_275)">
<rect x="1.96631" y="3" width="31.4612" height="29" fill="#381F1F"/>
<path d="M33.186 0H2.81237C1.25844 0 0 1.26 0 2.8125V33.1875C0 34.7415 1.25994 36 2.81237 36H33.186C34.7399 36 35.9983 34.74 35.9983 33.1875V2.8125C35.9983 1.2585 34.7384 0 33.186 0ZM17.9992 28.125C17.1127 28.125 16.2442 28.0635 15.4013 27.945C14.5583 28.539 9.68205 31.9635 9.22157 32.028C9.22157 32.028 9.03408 32.1015 8.87359 32.007C8.71309 31.9125 8.74159 31.6635 8.74159 31.6635C8.78959 31.3335 10.006 27.1365 10.2295 26.364C6.11222 24.324 3.37484 20.7105 3.37484 16.5945C3.37484 10.2255 9.92204 5.0625 17.9992 5.0625C26.0763 5.0625 32.6235 10.2255 32.6235 16.5945C32.6235 22.962 26.0763 28.125 17.9992 28.125ZM12.0744 14.8005H10.7575V19.8135C10.7575 20.2575 10.3795 20.619 9.91304 20.619C9.44656 20.619 9.07008 20.259 9.07008 19.8135V14.8005H7.75314C7.54468 14.7851 7.34975 14.6914 7.2075 14.5383C7.06524 14.3851 6.98617 14.1838 6.98617 13.9747C6.98617 13.7657 7.06524 13.5644 7.2075 13.4112C7.34975 13.2581 7.54468 13.1644 7.75314 13.149H12.0729C12.2814 13.1644 12.4763 13.2581 12.6186 13.4112C12.7608 13.5644 12.8399 13.7657 12.8399 13.9747C12.8399 14.1838 12.7608 14.3851 12.6186 14.5383C12.4763 14.6914 12.2814 14.7851 12.0729 14.8005H12.0744ZM28.5542 19.236C28.6215 19.3242 28.6707 19.4249 28.6987 19.5323C28.7268 19.6397 28.7332 19.7516 28.7177 19.8615C28.7022 19.9711 28.6653 20.0766 28.6089 20.1718C28.5525 20.2671 28.4778 20.3503 28.3892 20.4165C28.2435 20.5275 28.0654 20.5876 27.8822 20.5875C27.7513 20.5882 27.622 20.5582 27.5047 20.4998C27.3875 20.4415 27.2856 20.3564 27.2072 20.2515L25.2288 17.631L24.9363 17.9235V19.764C24.9359 19.9876 24.8471 20.2019 24.6891 20.3602C24.5311 20.5184 24.317 20.6077 24.0934 20.6085C23.8694 20.6085 23.6546 20.5195 23.4963 20.3612C23.3379 20.2028 23.2489 19.988 23.2489 19.764V13.992C23.2581 13.7744 23.351 13.5687 23.5082 13.418C23.6654 13.2672 23.8748 13.1831 24.0926 13.1831C24.3104 13.1831 24.5198 13.2672 24.677 13.418C24.8343 13.5687 24.9272 13.7744 24.9363 13.992V15.807L27.2912 13.452C27.3527 13.3913 27.4256 13.3434 27.5056 13.3109C27.5857 13.2785 27.6713 13.2622 27.7577 13.263C27.9677 13.263 28.1807 13.3545 28.3397 13.5135C28.4844 13.6554 28.5724 13.8453 28.5872 14.0475C28.595 14.1416 28.5824 14.2362 28.5503 14.325C28.5182 14.4138 28.4673 14.4946 28.4012 14.562L26.4783 16.4835L28.5542 19.236ZM16.0298 13.983C15.8873 13.578 15.4553 13.161 14.9048 13.149C14.3558 13.161 13.9239 13.578 13.7814 13.9815L11.764 19.293C11.5075 20.088 11.731 20.385 11.9634 20.493C12.1316 20.5695 12.3142 20.6089 12.4989 20.6085C12.8514 20.6085 13.1199 20.466 13.2009 20.2365L13.6194 19.1415H16.1917L16.6102 20.2365C16.6912 20.466 16.9597 20.6085 17.3122 20.6085C17.497 20.6083 17.6796 20.5684 17.8477 20.4915C18.0802 20.385 18.3036 20.0895 18.0472 19.2915L16.0298 13.983ZM14.0633 17.6475L14.9063 15.2535L15.7478 17.6475H14.0633ZM22.9204 19.722C22.9157 19.9318 22.8279 20.1312 22.6763 20.2763C22.5247 20.4214 22.3218 20.5004 22.112 20.496H19.4061C19.3021 20.4984 19.1986 20.4803 19.1016 20.4427C19.0046 20.4051 18.916 20.3487 18.8408 20.2768C18.7655 20.2049 18.7052 20.1189 18.6633 20.0237C18.6213 19.9285 18.5985 19.826 18.5961 19.722V13.992C18.5961 13.527 18.9831 13.149 19.4586 13.149C19.9341 13.149 20.3196 13.527 20.3196 13.992V18.9495H22.112C22.5574 18.9495 22.9204 19.296 22.9204 19.722Z" fill="#FDDE32"/>
</g>
<defs>
<clipPath id="clip0_541_275">
<rect width="35.9983" height="36" rx="3" fill="white"/>
</clipPath>
</defs>
</svg>
