<svg width="32" height="33" viewBox="0 0 32 33" fill="none" xmlns="http://www.w3.org/2000/svg">
<path d="M13.6573 22.1468L8 16.3855L9.88533 14.4659L13.6573 18.305L21.1987 10.6254L23.0853 12.5463L13.6573 22.1441V22.1468Z" fill="#D9D9D9"/>
<path fill-rule="evenodd" clip-rule="evenodd" d="M1.33334 16.2904C1.33334 8.04341 7.90001 1.35754 16 1.35754C24.1 1.35754 30.6667 8.04341 30.6667 16.2904C30.6667 24.5375 24.1 31.2233 16 31.2233C7.90001 31.2233 1.33334 24.5375 1.33334 16.2904ZM16 28.5083C14.4241 28.5083 12.8637 28.1922 11.4078 27.5782C9.9519 26.9642 8.62903 26.0643 7.51473 24.9297C6.40043 23.7952 5.51651 22.4483 4.91346 20.966C4.3104 19.4837 4.00001 17.8949 4.00001 16.2904C4.00001 14.686 4.3104 13.0972 4.91346 11.6149C5.51651 10.1325 6.40043 8.78566 7.51473 7.65113C8.62903 6.5166 9.9519 5.61664 11.4078 5.00264C12.8637 4.38864 14.4241 4.07262 16 4.07262C19.1826 4.07262 22.2349 5.35985 24.4853 7.65113C26.7357 9.94242 28 13.0501 28 16.2904C28 19.5308 26.7357 22.6385 24.4853 24.9297C22.2349 27.221 19.1826 28.5083 16 28.5083Z" fill="#D9D9D9"/>
</svg>
