<svg width="16" height="23" viewBox="0 0 16 23" fill="none" xmlns="http://www.w3.org/2000/svg">
<path d="M0.710583 0.605111C0.485331 0.795676 0.306625 1.02203 0.184694 1.27122C0.0627624 1.52041 0 1.78754 0 2.05732C0 2.32709 0.0627624 2.59422 0.184694 2.84341C0.306625 3.0926 0.485331 3.31895 0.710583 3.50952L10.1382 11.5018L0.710583 19.4941C0.256263 19.8792 0.00102886 20.4016 0.00102886 20.9463C0.00102886 21.491 0.256263 22.0133 0.710583 22.3985C1.1649 22.7836 1.78109 23 2.4236 23C3.0661 23 3.68229 22.7836 4.13661 22.3985L15.2894 12.9437C15.5147 12.7531 15.6934 12.5268 15.8153 12.2776C15.9372 12.0284 16 11.7613 16 11.4915C16 11.2217 15.9372 10.9546 15.8153 10.7054C15.6934 10.4562 15.5147 10.2299 15.2894 10.0393L4.13661 0.584511C3.21328 -0.198237 1.65821 -0.198237 0.710583 0.605111Z" fill="black"/>
</svg>
